<svg width="308" height="45" viewBox="0 0 308 45" fill="none" xmlns="http://www.w3.org/2000/svg">
<path d="M50.6242 35.0871L42.2273 43.771C42.0451 43.9578 41.8224 44.1081 41.5755 44.2137C41.3285 44.3153 41.0653 44.3721 40.7981 44.3681H0.979836C0.78955 44.3681 0.60331 44.3153 0.445413 44.2137C0.287516 44.1162 0.162003 43.97 0.0850788 43.8035C0.00815478 43.637 -0.0120815 43.4501 0.016259 43.2714C0.048648 43.0927 0.133663 42.9221 0.26322 42.7881L8.66819 34.1041C8.85037 33.9173 9.06899 33.767 9.31596 33.6614C9.56292 33.5599 9.82608 33.5071 10.0933 33.503H49.9076C50.0978 33.503 50.2841 33.5558 50.442 33.6574C50.5999 33.7589 50.7254 33.9011 50.8023 34.0717C50.8792 34.2382 50.8995 34.425 50.8671 34.6037C50.8347 34.7825 50.7497 34.9531 50.6201 35.0871H50.6242ZM42.2233 17.6015C42.0411 17.4146 41.8184 17.2643 41.5714 17.1587C41.3244 17.0572 41.0613 17.0044 40.7941 17.0044H0.975783C0.785497 17.0044 0.599257 17.0572 0.44136 17.1587C0.283464 17.2603 0.15795 17.4024 0.0810262 17.569C0.00410219 17.7355 -0.016134 17.9223 0.0122064 18.1011C0.0445954 18.2798 0.129611 18.4504 0.259167 18.5844L8.66413 27.2683C8.84632 27.4552 9.06494 27.6054 9.3119 27.711C9.55887 27.8126 9.82205 27.8654 10.0893 27.8694H49.9035C50.0938 27.8694 50.28 27.8166 50.4379 27.7151C50.5958 27.6136 50.7213 27.4714 50.7983 27.3008C50.8752 27.1343 50.8954 26.9474 50.863 26.7687C50.8306 26.59 50.7456 26.4194 50.6161 26.2854L42.2192 17.6015H42.2233ZM0.979836 11.3627H40.7981C41.0653 11.3627 41.3285 11.3099 41.5755 11.2083C41.8224 11.1068 42.041 10.9565 42.2273 10.7656L50.6242 2.08172C50.7537 1.94768 50.8387 1.78115 50.8711 1.59837C50.9035 1.41966 50.8792 1.23282 50.8063 1.06629C50.7294 0.899761 50.6039 0.757598 50.446 0.656056C50.2881 0.554513 50.1019 0.501709 49.9116 0.501709H10.0973C9.83013 0.501709 9.56698 0.554517 9.32001 0.660121C9.07709 0.761664 8.85443 0.911945 8.67224 1.10284L0.267272 9.78675C0.137716 9.92078 0.0526759 10.0873 0.0202868 10.266C-0.0121022 10.4448 0.0122074 10.6316 0.0891314 10.7981C0.166055 10.9646 0.291544 11.1068 0.449441 11.2083C0.607338 11.3099 0.793578 11.3627 0.983863 11.3627H0.979836Z" fill="white"/>
<path d="M66.8853 44.87V0H110.473C117.973 0 124.255 6.2818 124.255 13.7815C124.255 17.0506 123.037 20.1274 121.114 22.435C123.101 24.8708 124.255 27.8194 124.255 31.0885C124.255 38.6523 117.973 44.87 110.473 44.87H66.8853ZM110.473 34.614C112.396 34.614 113.999 33.0115 113.999 31.0885C113.999 29.1655 112.396 27.563 110.473 27.563H77.1413V34.614H110.473ZM110.473 17.307C112.396 17.307 113.999 15.7045 113.999 13.7815C113.999 11.8585 112.396 10.256 110.473 10.256H77.1413V17.307H110.473Z" fill="white"/>
<path d="M168.361 10.256H139.003V17.307H168.361C170.284 17.307 171.886 15.7045 171.886 13.7815C171.886 11.8585 170.284 10.256 168.361 10.256ZM168.361 27.563H139.003V44.87H128.747V0H168.361C175.86 0 182.142 6.2177 182.142 13.7815C182.142 21.2812 175.86 27.563 168.361 27.563Z" fill="white"/>
<path d="M184.536 44.87V31.0885C184.536 23.5888 190.818 17.307 198.318 17.307H227.483C229.406 17.307 231.009 15.7045 231.009 13.7815C231.009 11.8585 229.406 10.256 227.483 10.256H185.177V0H227.483C234.983 0 241.265 6.2177 241.265 13.7815C241.265 21.2812 234.983 27.563 227.483 27.563H198.318C196.395 27.563 194.792 29.1655 194.792 31.0885V34.614H241.265V44.87H184.536Z" fill="white"/>
<path d="M258.912 27.563C256.989 27.563 255.387 29.1655 255.387 31.0885C255.387 33.0115 256.989 34.614 258.912 34.614H287.437C289.36 34.614 290.962 33.0115 290.962 31.0885C290.962 29.1655 289.36 27.563 287.437 27.563H258.912ZM258.912 44.87C251.413 44.87 245.131 38.5882 245.131 31.0885V13.7815C245.131 6.2177 251.413 0 258.912 0H300.577V10.256H258.912C256.989 10.256 255.387 11.8585 255.387 13.7815V17.7557C256.541 17.4352 257.694 17.307 258.912 17.307H287.437C294.936 17.307 301.218 23.5247 301.218 31.0885C301.218 38.5882 294.936 44.87 287.437 44.87H258.912Z" fill="white"/>
</svg>
